<svg width="110" height="76" viewBox="0 0 110 76" fill="none" xmlns="http://www.w3.org/2000/svg">
<path d="M42.9181 11.2883C42.9181 6.25205 48.4716 3.33594 54.2236 2.85161V20.4177C48.9766 20.1577 44.7166 18.981 42.9181 18.4066V11.2883ZM68.0826 30.3343C68.0826 37.1655 62.4378 42.7213 55.5003 42.7213C48.563 42.7213 42.9181 37.1655 42.9181 30.3343V21.4261C45.5235 22.2014 50.4279 23.3772 56.2247 23.3772C59.9372 23.3772 64.0138 22.8883 68.0827 21.5099L68.0826 30.3343ZM68.0826 18.4549C64.3928 19.844 60.6246 20.3869 57.1413 20.4607V2.80916C62.7675 3.14128 68.0826 5.79779 68.0826 11.2895V18.4549ZM67.0956 17.3675C67.0956 17.3675 60.4299 19.2049 58.1628 18.8111V4.24164C64.1965 5.3576 68.0793 7.15381 67.0956 17.3675Z" fill="white"/>
<path d="M6.9 72.2C8.5 72.2 9.625 71.875 10.8 71.2L11.025 68.75C9.6 69.525 8.45 69.9 7.125 69.9C5.175 69.9 3.575 68.575 3.575 66.475C3.575 64.075 5.125 63.05 6.375 63.05C7.45 63.05 8.125 63.525 8.325 63.8C8.125 64.025 7.975 64.4 7.975 64.725C7.975 65.625 8.725 66.375 9.625 66.375C10.6 66.375 11.375 65.675 11.375 64.525C11.375 62.8 9.4 60.85 6.4 60.85C3.15 60.85 0.85 63.575 0.85 66.425C0.85 69.95 3.45 72.2 6.9 72.2ZM13.1256 72H19.1756V69.75H17.5506V53.7H13.1256V56H14.8256V69.75H13.1256V72ZM23.3986 59.375C24.3736 59.375 25.2486 58.575 25.2486 57.575C25.2486 56.575 24.4236 55.775 23.4486 55.775C22.4736 55.775 21.5986 56.575 21.5986 57.575C21.5986 58.575 22.4236 59.375 23.3986 59.375ZM20.6486 72H26.6736V69.75H25.0486V61.05H20.6486V63.35H22.3236V69.75H20.6486V72ZM34.3658 72.2C35.9658 72.2 37.0908 71.875 38.2658 71.2L38.4908 68.75C37.0658 69.525 35.9158 69.9 34.5908 69.9C32.6408 69.9 31.0408 68.575 31.0408 66.475C31.0408 64.075 32.5908 63.05 33.8408 63.05C34.9158 63.05 35.5908 63.525 35.7908 63.8C35.5908 64.025 35.4408 64.4 35.4408 64.725C35.4408 65.625 36.1908 66.375 37.0908 66.375C38.0658 66.375 38.8408 65.675 38.8408 64.525C38.8408 62.8 36.8658 60.85 33.8658 60.85C30.6158 60.85 28.3158 63.575 28.3158 66.425C28.3158 69.95 30.9158 72.2 34.3658 72.2ZM40.5914 72H46.3164V69.8H44.9414V68.4L46.5164 67.075L49.6664 72H53.0914V69.7H51.2914L48.5164 65.5L51.0664 63.35H53.0914V61.05H46.6164V63.225H48.1414L44.9414 65.975V53.7H40.5914V56H42.2164V69.75H40.5914V72ZM61.5035 56V69.75H59.8785V72H65.7285V69.75H64.2285V64.6C65.1035 63.875 66.1035 63.325 67.0535 63.325C67.5785 63.325 68.0035 63.5 68.2785 63.85C68.5035 64.15 68.6285 64.575 68.6285 65.175V69.75H67.1285V72H72.9785V69.75H71.3535V64.5C71.3535 63.5 71.1035 62.65 70.6285 62.025C70.0535 61.275 69.1285 60.85 67.9535 60.85C66.4035 60.85 65.2535 61.725 64.2285 62.7V53.7H59.8785V56H61.5035ZM84.8178 67.45C84.8928 67.075 84.9428 66.525 84.9428 66.1C84.9428 63.2 83.1178 60.85 79.6178 60.85C76.2428 60.85 74.0678 63.45 74.0678 66.55C74.0678 69.95 76.5428 72.2 80.1178 72.2C81.7178 72.2 83.1178 71.875 84.2678 71.2L84.4928 68.75C83.2178 69.475 81.8428 69.9 80.5178 69.9C78.6928 69.9 77.2928 69.15 76.9178 67.45H84.8178ZM79.5928 63.05C81.1928 63.05 82.1678 64.05 82.2178 65.55H76.8928C77.1928 63.75 78.3928 63.05 79.5928 63.05ZM94.2178 60.85C92.8178 60.85 91.6678 62.05 90.7428 63.525V61.05H86.4928V63.35H88.1178V69.75H86.4928V72H92.7428V69.75H90.8428V65.45C91.3428 64.5 92.2428 63.65 93.0178 63.375C93.2428 63.875 93.7928 64.35 94.6178 64.35C95.5178 64.35 96.2428 63.575 96.2428 62.65C96.2428 61.675 95.5678 60.85 94.2178 60.85ZM107.816 67.45C107.891 67.075 107.941 66.525 107.941 66.1C107.941 63.2 106.116 60.85 102.616 60.85C99.2408 60.85 97.0658 63.45 97.0658 66.55C97.0658 69.95 99.5408 72.2 103.116 72.2C104.716 72.2 106.116 71.875 107.266 71.2L107.491 68.75C106.216 69.475 104.841 69.9 103.516 69.9C101.691 69.9 100.291 69.15 99.9158 67.45H107.816ZM102.591 63.05C104.191 63.05 105.166 64.05 105.216 65.55H99.8908C100.191 63.75 101.391 63.05 102.591 63.05Z" fill="#44A5FF"/>
</svg>
