<svg width="203" height="310" viewBox="0 0 203 310" fill="none" xmlns="http://www.w3.org/2000/svg">
<path d="M32.432 296.464C32.432 293.476 31.496 291.136 29.948 289.084H32V286.528H20.48V295.708H22.748V289.156H27.788C29.228 291.208 30.056 293.476 30.056 296.176C30.056 301.072 26.168 305.248 20.336 305.248C14.72 305.248 10.328 301.396 10.328 295.78C10.328 293.116 11.336 291.064 12.308 290.164C12.596 290.524 13.064 290.776 13.676 290.776C14.756 290.776 15.584 289.948 15.584 288.832C15.584 287.68 14.684 286.816 13.352 286.816C10.832 286.816 7.88 290.38 7.88 295.708C7.88 302.26 12.848 307.984 20.336 307.984C27.896 307.984 32.432 302.44 32.432 296.464ZM32.288 276.761C32.288 274.673 31.28 272.693 30.056 271.433H32V266.645H29.84V269.129H21.488C20.192 269.129 19.04 269.489 18.176 270.281C17.06 271.289 16.376 272.945 16.376 275.213C16.376 278.885 18.176 280.901 19.94 280.901C20.876 280.901 21.596 280.253 21.596 279.317C21.596 278.345 20.912 277.697 20.012 277.697C19.688 277.697 19.364 277.805 19.112 277.913C18.788 277.409 18.464 276.761 18.464 275.537C18.464 273.989 18.932 272.873 19.688 272.189C20.228 271.757 20.984 271.505 21.848 271.505H23.972C23.684 272.297 23.252 274.277 23.252 275.933C23.252 279.353 25.088 281.837 27.896 281.837C30.524 281.837 32.288 279.713 32.288 276.761ZM30.272 276.113C30.272 278.201 29.192 279.317 27.716 279.317C26.132 279.317 24.98 278.093 24.98 275.645C24.98 274.169 25.268 272.657 25.592 271.505H28.148C29.336 272.693 30.272 274.277 30.272 276.113ZM32.288 255.795C32.288 251.259 28.724 248.091 24.332 248.091C19.58 248.091 16.376 251.403 16.376 255.399C16.376 257.847 17.42 259.359 18.68 260.655H5.648L5.648 265.587H7.808L7.808 263.139H32.036V261.591L30.416 260.835C31.532 259.503 32.288 257.739 32.288 255.795ZM30.128 255.939C30.128 257.919 29.336 259.467 28.4 260.655H20.84C19.544 259.395 18.536 257.811 18.536 255.831C18.536 252.843 20.876 250.647 24.368 250.647C27.824 250.647 30.128 252.987 30.128 255.939ZM16.376 235.457C16.376 237.113 18.032 238.949 20.156 240.137H16.664L16.664 244.961H18.86V242.513H29.84V244.961H32V237.149H29.84V240.029H22.172C20.624 239.273 19.256 237.869 18.932 236.717C19.616 236.465 20.228 235.817 20.228 234.881C20.228 233.909 19.364 233.153 18.392 233.153C17.348 233.153 16.376 233.945 16.376 235.457ZM12.74 227.722C12.74 226.678 11.84 225.742 10.76 225.742C9.68 225.742 8.744 226.642 8.744 227.686C8.744 228.766 9.68 229.702 10.76 229.702C11.84 229.702 12.74 228.802 12.74 227.722ZM32 231.214V223.546H29.84V226.138H16.664V231.214H18.86V228.622H29.84V231.214H32ZM25.052 206.444C24.656 206.336 24.188 206.3 23.612 206.3C19.796 206.3 16.376 208.748 16.376 213.32C16.376 218 20.12 220.844 24.368 220.844C29.048 220.844 32.288 217.568 32.288 212.672C32.288 210.728 31.784 208.748 30.812 207.164L28.4 206.948C29.444 208.748 30.092 210.296 30.092 212.348C30.092 215.66 28.436 217.892 25.052 218.252V206.444ZM18.5 213.464C18.5 210.548 20.372 209 23.072 208.82V218.216C20.156 217.856 18.5 215.804 18.5 213.464ZM32 203.66V195.992H29.84V198.584H5.648L5.648 203.66H7.808V201.068H29.84L29.84 203.66H32ZM32 185.16V176.484H29.624V179.472L13.064 178.896L28.652 171.264V170.544L13.064 162.912L29.624 162.3L29.624 165.324H32V156.612H29.624V159.672L10.688 160.536L10.688 157.368H8.312L8.312 163.092L24.404 170.868L8.312 178.608V184.368H10.688V181.2L29.624 182.064V185.16H32ZM32.288 148.546C32.288 146.458 31.28 144.478 30.056 143.218H32V138.43H29.84V140.914H21.488C20.192 140.914 19.04 141.274 18.176 142.066C17.06 143.074 16.376 144.73 16.376 146.998C16.376 150.67 18.176 152.686 19.94 152.686C20.876 152.686 21.596 152.038 21.596 151.102C21.596 150.13 20.912 149.482 20.012 149.482C19.688 149.482 19.364 149.59 19.112 149.698C18.788 149.194 18.464 148.546 18.464 147.322C18.464 145.774 18.932 144.658 19.688 143.974C20.228 143.542 20.984 143.29 21.848 143.29H23.972C23.684 144.082 23.252 146.062 23.252 147.718C23.252 151.138 25.088 153.622 27.896 153.622C30.524 153.622 32.288 151.498 32.288 148.546ZM30.272 147.898C30.272 149.986 29.192 151.102 27.716 151.102C26.132 151.102 24.98 149.878 24.98 147.43C24.98 145.954 25.268 144.442 25.592 143.29H28.148C29.336 144.478 30.272 146.062 30.272 147.898ZM32.288 129.632C32.288 127.436 30.848 125.348 29.156 123.908H32V119.048H29.84V121.496H16.664L16.664 126.5H18.86V123.98H27.284C28.76 125.42 29.984 127.112 29.984 129.02C29.984 130.28 29.588 131.072 28.688 131.54C28.184 131.828 27.5 131.972 26.636 131.972H16.664V136.904H18.86V134.456H27.104C28.328 134.456 29.408 134.204 30.236 133.736C31.532 132.98 32.288 131.648 32.288 129.632ZM39.056 116.825V108.941H36.896V111.893H30.524C31.604 110.633 32.288 108.941 32.288 107.141C32.288 102.569 28.58 99.5814 24.26 99.5814C19.544 99.5814 16.376 102.785 16.376 106.817C16.376 109.121 17.42 110.669 18.86 111.965H16.664V116.825H18.86V114.377H36.896V116.825H39.056ZM30.092 107.285C30.092 109.265 29.372 110.741 28.4 111.893H20.84C19.544 110.633 18.572 109.157 18.572 107.177C18.572 104.297 20.84 102.137 24.296 102.173C27.644 102.209 30.092 104.297 30.092 107.285ZM32.288 91.5931C32.288 89.5051 31.28 87.5251 30.056 86.2651H32V81.4771H29.84L29.84 83.9611H21.488C20.192 83.9611 19.04 84.3211 18.176 85.1131C17.06 86.1211 16.376 87.7771 16.376 90.0451C16.376 93.7171 18.176 95.7331 19.94 95.7331C20.876 95.7331 21.596 95.0851 21.596 94.1491C21.596 93.1771 20.912 92.5291 20.012 92.5291C19.688 92.5291 19.364 92.6371 19.112 92.7451C18.788 92.2411 18.464 91.5931 18.464 90.3691C18.464 88.8211 18.932 87.7051 19.688 87.0211C20.228 86.5891 20.984 86.3371 21.848 86.3371H23.972C23.684 87.1291 23.252 89.1091 23.252 90.7651C23.252 94.1851 25.088 96.6691 27.896 96.6691C30.524 96.6691 32.288 94.5451 32.288 91.5931ZM30.272 90.9451C30.272 93.0331 29.192 94.1491 27.716 94.1491C26.132 94.1491 24.98 92.9251 24.98 90.4771C24.98 89.0011 25.268 87.4891 25.592 86.3371H28.148C29.336 87.5251 30.272 89.1091 30.272 90.9451ZM19.724 67.3507C19.076 67.3507 18.5 67.6027 17.96 68.1427C17.024 69.0787 16.376 70.9147 16.376 72.9667C16.376 76.6387 18.5 78.7987 20.804 78.7987C23.648 78.7987 24.512 76.4947 25.448 72.7867C25.988 70.5907 26.528 69.1507 27.932 69.1507C29.408 69.1507 30.308 70.8067 30.308 72.8947C30.308 74.5507 29.84 75.8107 29.444 76.3147C29.12 76.1707 28.832 76.0627 28.508 76.0627C27.572 76.0627 26.924 76.7467 26.924 77.7187C26.924 78.6187 27.716 79.2667 28.616 79.2667C29.372 79.2667 29.984 78.9787 30.524 78.4387C31.568 77.3947 32.288 75.1267 32.288 72.8947C32.288 69.6187 30.596 66.7747 27.68 66.7747C24.692 66.7747 23.828 69.3667 23.072 72.4627C22.424 74.9827 21.956 76.3867 20.624 76.3867C19.508 76.3867 18.392 75.1627 18.392 73.0387C18.392 71.8867 18.572 70.8787 18.932 70.3387C19.22 70.4827 19.544 70.5187 19.796 70.5187C20.732 70.5187 21.38 69.7987 21.38 68.8627C21.38 67.9987 20.696 67.3507 19.724 67.3507Z" fill="#44A5FF"/>
<path d="M60.332 32H70.052V28.364H67.1V24.116C67.604 24.152 68.288 24.152 69.404 24.152C74.984 24.152 78.836 21.488 78.836 16.052C78.836 11.228 74.948 8.312 69.872 8.312H60.332V11.948H63.032V28.364H60.332V32ZM69.764 20.588C68.108 20.588 67.532 20.552 67.1 20.516V11.948H69.656C72.572 11.948 74.624 13.568 74.624 16.052C74.624 18.86 72.824 20.588 69.764 20.588ZM89.1081 32.288C94.2561 32.288 97.4961 28.436 97.4961 24.116C97.4961 19.724 94.3281 15.944 89.1081 15.944C83.9601 15.944 80.7201 19.796 80.7201 24.116C80.7201 28.508 83.8881 32.288 89.1081 32.288ZM89.1081 29.012C86.5521 29.012 84.7521 26.996 84.7521 24.116C84.7521 21.236 86.5521 19.22 89.1081 19.22C91.6641 19.22 93.4641 21.236 93.4641 24.116C93.4641 26.996 91.6641 29.012 89.1081 29.012ZM110.967 15.944C108.951 15.944 107.295 17.672 105.963 19.796V16.232H99.8426V19.544H102.183V28.76H99.8426V32H108.843V28.76H106.107V22.568C106.827 21.2 108.123 19.976 109.239 19.58C109.563 20.3 110.355 20.984 111.543 20.984C112.839 20.984 113.883 19.868 113.883 18.536C113.883 17.132 112.911 15.944 110.967 15.944ZM122.543 32.288C123.983 32.288 125.243 31.892 126.323 31.352L126.647 27.968C125.711 28.4 124.559 28.796 123.551 28.796C122.759 28.796 122.183 28.544 121.895 28.04C121.715 27.716 121.643 27.392 121.643 26.888V19.544H126.431V16.232H121.643V11.228L117.755 12.92V16.232H114.695V19.544H117.755V27.644C117.755 28.652 117.935 29.48 118.295 30.128C119.087 31.64 120.635 32.288 122.543 32.288ZM139.144 10.256C140.26 10.256 141.268 9.428 141.268 8.024C141.268 6.44 139.828 5.36 137.776 5.36C136.012 5.36 134.572 5.936 133.456 7.016C131.944 8.492 131.44 10.292 131.44 13.172V16.232H128.74V19.544H131.44V28.76H129.064V32H138.388V28.76H135.328V19.544H139.432V16.232H135.328V12.596C135.328 11.084 135.58 10.112 136.048 9.428C136.228 9.14 136.552 8.924 136.876 8.78C137.308 9.608 137.92 10.256 139.144 10.256ZM149.225 32.288C154.373 32.288 157.613 28.436 157.613 24.116C157.613 19.724 154.445 15.944 149.225 15.944C144.077 15.944 140.837 19.796 140.837 24.116C140.837 28.508 144.005 32.288 149.225 32.288ZM149.225 29.012C146.669 29.012 144.869 26.996 144.869 24.116C144.869 21.236 146.669 19.22 149.225 19.22C151.781 19.22 153.581 21.236 153.581 24.116C153.581 26.996 151.781 29.012 149.225 29.012ZM159.78 32H168.492V28.76H166.152V5.648H159.78V8.96H162.228V28.76H159.78V32ZM174.573 13.82C175.977 13.82 177.237 12.668 177.237 11.228C177.237 9.788 176.049 8.636 174.645 8.636C173.241 8.636 171.981 9.788 171.981 11.228C171.981 12.668 173.169 13.82 174.573 13.82ZM170.613 32H179.289V28.76H176.949V16.232H170.613V19.544H173.025V28.76H170.613V32ZM190.042 32.288C195.19 32.288 198.43 28.436 198.43 24.116C198.43 19.724 195.262 15.944 190.042 15.944C184.894 15.944 181.654 19.796 181.654 24.116C181.654 28.508 184.822 32.288 190.042 32.288ZM190.042 29.012C187.486 29.012 185.686 26.996 185.686 24.116C185.686 21.236 187.486 19.22 190.042 19.22C192.598 19.22 194.398 21.236 194.398 24.116C194.398 26.996 192.598 29.012 190.042 29.012Z" fill="#44A5FF"/>
<rect x="20" y="21" width="3" height="33" fill="#44A5FF"/>
<rect x="56" y="21" width="3" height="33" transform="rotate(90 56 21)" fill="#44A5FF"/>
</svg>
