<svg width="80" height="30" viewBox="0 0 80 30" fill="none" xmlns="http://www.w3.org/2000/svg">
<path d="M18.275 7V20.75H16.65V23H22.5V20.75H21V15.6C21.875 14.875 22.875 14.325 23.825 14.325C24.35 14.325 24.775 14.5 25.05 14.85C25.275 15.15 25.4 15.575 25.4 16.175V20.75H23.9V23H29.75V20.75H28.125V15.5C28.125 14.5 27.875 13.65 27.4 13.025C26.825 12.275 25.9 11.85 24.725 11.85C23.175 11.85 22.025 12.725 21 13.7V4.7H16.65V7H18.275ZM36.6643 23.2C40.2393 23.2 42.4893 20.525 42.4893 17.525C42.4893 14.475 40.2893 11.85 36.6643 11.85C33.0893 11.85 30.8393 14.525 30.8393 17.525C30.8393 20.575 33.0393 23.2 36.6643 23.2ZM36.6643 20.925C34.8893 20.925 33.6393 19.525 33.6393 17.525C33.6393 15.525 34.8893 14.125 36.6643 14.125C38.4393 14.125 39.6893 15.525 39.6893 17.525C39.6893 19.525 38.4393 20.925 36.6643 20.925ZM44.1188 23H49.9188V20.75H48.4688V15.55C49.2938 14.85 50.2438 14.325 51.1438 14.325C51.7938 14.325 52.2188 14.575 52.4438 15.1C52.5688 15.375 52.6188 15.7 52.6188 16.125V20.75H51.1188V23H56.8188V20.75H55.3438V15.55C56.1688 14.85 57.1187 14.325 58.0188 14.325C58.6438 14.325 59.0938 14.575 59.3188 15.1C59.4438 15.375 59.4938 15.7 59.4938 16.125V20.75H58.0188V23H63.8438V20.75H62.2188V15.475C62.2188 14.675 62.0688 13.975 61.7688 13.425C61.2188 12.4 60.1688 11.85 58.6438 11.85C57.2438 11.85 56.0188 12.65 54.9938 13.65C54.8938 13.425 54.7938 13.225 54.6438 13.025C54.0938 12.3 53.2188 11.85 52.0438 11.85C50.4188 11.85 49.2188 12.85 48.3688 13.775V12.05H44.1188V14.35H45.7438V20.75H44.1188V23ZM75.6713 18.45C75.7463 18.075 75.7963 17.525 75.7963 17.1C75.7963 14.2 73.9713 11.85 70.4713 11.85C67.0963 11.85 64.9213 14.45 64.9213 17.55C64.9213 20.95 67.3963 23.2 70.9713 23.2C72.5713 23.2 73.9713 22.875 75.1213 22.2L75.3463 19.75C74.0713 20.475 72.6963 20.9 71.3713 20.9C69.5463 20.9 68.1463 20.15 67.7713 18.45H75.6713ZM70.4463 14.05C72.0463 14.05 73.0213 15.05 73.0713 16.55H67.7463C68.0463 14.75 69.2463 14.05 70.4463 14.05Z" fill="#44A5FF"/>
<rect width="10.956" height="5.09568" transform="matrix(-0.000184182 1 -1 0.000188869 8.43616 13.5146)" fill="#44A5FF"/>
<path d="M6.01655 4.91518L11.1113 14.048L0.814422 14.005L6.01655 4.91518Z" fill="#44A5FF"/>
</svg>
