<svg width="144" height="222" viewBox="0 0 144 222" fill="none" xmlns="http://www.w3.org/2000/svg">
<path d="M143.7 94.5248C143.691 92.9072 143.044 91.3583 141.899 90.2144C140.754 89.0705 139.204 88.4238 137.585 88.4146C136.475 88.4176 135.387 88.7242 134.439 89.3014C133.491 89.8785 132.719 90.7041 132.207 91.6886H118.19C117.681 90.717 116.919 89.9003 115.985 89.3242C115.051 88.7482 113.979 88.434 112.882 88.4146C111.769 88.4163 110.678 88.7223 109.727 89.2994C108.775 89.8765 108 90.7027 107.486 91.6886H93.4693C92.96 90.7207 92.2007 89.9067 91.2703 89.331C90.3399 88.7553 89.2722 88.4389 88.1782 88.4146C86.6382 88.3946 85.1471 88.9544 84.0012 89.9827C82.8553 91.0109 82.1386 92.4324 81.9935 93.9646C81.4393 94.8166 81.1443 95.8109 81.1443 96.8271C81.1443 97.8433 81.4393 98.8376 81.9935 99.6896L81.8358 133.48C81.8312 135.102 82.4704 136.66 83.6133 137.811C84.7562 138.963 86.3096 139.615 87.9329 139.625C89.5532 139.625 91.1076 138.984 92.2566 137.842C93.4056 136.701 94.0557 135.151 94.065 133.532L94.2577 102.158H106.697L106.522 133.48C106.522 135.103 107.165 136.661 108.311 137.813C109.456 138.964 111.012 139.615 112.637 139.625C113.44 139.627 114.235 139.471 114.978 139.166C115.721 138.861 116.396 138.413 116.965 137.847C117.535 137.282 117.987 136.609 118.297 135.869C118.606 135.129 118.766 134.334 118.769 133.532L118.926 102.158H131.401L131.226 209.621C100.25 209.621 73.4086 201.129 53.4179 185.005C32.9367 168.477 21.5309 145.525 20.4096 118.598C19.8179 105.469 21.8615 92.3538 26.4201 80.0259C30.9786 67.6981 37.96 56.4065 46.9529 46.8163C66.7333 25.5094 95.6594 13.2365 128.317 12.256C129.944 12.2328 131.494 11.565 132.628 10.3994C133.761 9.23379 134.385 7.66596 134.362 6.04079C134.338 4.41562 133.67 2.86624 132.504 1.73349C131.337 0.600739 129.768 -0.0225906 128.142 0.000626056H127.949C91.9976 1.0686 60.0055 14.7421 37.8949 38.5176C27.8071 49.3002 19.9761 61.9876 14.8614 75.8353C9.7468 89.683 7.45155 104.412 8.11039 119.158C10.6859 180.26 61.1444 221.946 131.594 221.946C133.346 221.946 135.098 221.946 136.99 221.859C138.519 221.817 139.975 221.2 141.07 220.133C142.164 219.065 142.815 217.625 142.894 216.098C143.281 215.301 143.484 214.428 143.49 213.542L143.7 94.5248Z" fill="#44A5FF"/>
<path d="M135.7 94.5248C135.691 92.9072 135.044 91.3583 133.899 90.2144C132.754 89.0705 131.204 88.4238 129.585 88.4146C128.475 88.4176 127.387 88.7242 126.439 89.3014C125.491 89.8785 124.719 90.7041 124.207 91.6886H110.19C109.681 90.717 108.919 89.9003 107.985 89.3242C107.051 88.7482 105.979 88.434 104.882 88.4146C103.769 88.4163 102.678 88.7223 101.727 89.2994C100.775 89.8765 100 90.7027 99.4856 91.6886H85.4693C84.96 90.7207 84.2007 89.9067 83.2703 89.331C82.3399 88.7553 81.2722 88.4389 80.1782 88.4146C78.6382 88.3946 77.1471 88.9544 76.0012 89.9827C74.8553 91.0109 74.1386 92.4324 73.9935 93.9646C73.4393 94.8166 73.1443 95.8109 73.1443 96.8271C73.1443 97.8433 73.4393 98.8376 73.9935 99.6896L73.8358 133.48C73.8312 135.102 74.4704 136.66 75.6133 137.811C76.7562 138.963 78.3096 139.615 79.9329 139.625C81.5532 139.625 83.1076 138.984 84.2566 137.842C85.4056 136.701 86.0557 135.151 86.065 133.532L86.2577 102.158H98.6972L98.5219 133.48C98.5219 135.103 99.165 136.661 100.311 137.813C101.456 138.964 103.012 139.615 104.637 139.625C105.44 139.627 106.235 139.471 106.978 139.166C107.721 138.861 108.396 138.413 108.965 137.847C109.535 137.282 109.987 136.609 110.297 135.869C110.606 135.129 110.766 134.334 110.769 133.532L110.926 102.158H123.401L123.226 209.621C92.2497 209.621 65.4086 201.129 45.4179 185.005C24.9367 168.477 13.5309 145.525 12.4096 118.598C11.8179 105.469 13.8615 92.3538 18.4201 80.0259C22.9786 67.6981 29.96 56.4065 38.9529 46.8163C58.7333 25.5094 87.6594 13.2365 120.317 12.256C121.944 12.2328 123.494 11.565 124.628 10.3994C125.761 9.23379 126.385 7.66596 126.362 6.04079C126.338 4.41562 125.67 2.86624 124.504 1.73349C123.337 0.600739 121.768 -0.0225906 120.142 0.000626056H119.949C83.9976 1.0686 52.0055 14.7421 29.8949 38.5176C19.8071 49.3002 11.9761 61.9876 6.86144 75.8353C1.7468 89.683 -0.548447 104.412 0.110391 119.158C2.68588 180.26 53.1444 221.946 123.594 221.946C125.346 221.946 127.098 221.946 128.99 221.859C130.519 221.817 131.975 221.2 133.07 220.133C134.164 219.065 134.815 217.625 134.894 216.098C135.281 215.301 135.484 214.428 135.49 213.542L135.7 94.5248Z" fill="white"/>
</svg>
